<svg id="visual" viewBox="0 0 900 450" width="900" height="450" xmlns="http://www.w3.org/2000/svg" xmlns:xlink="http://www.w3.org/1999/xlink" version="1.1"><rect x="0" y="0" width="900" height="450" fill="#FFC0CB"></rect><path d="M0 292L4.8 264.3C9.7 236.7 19.3 181.3 29 161.7C38.7 142 48.3 158 58 179C67.7 200 77.3 226 87 247.7C96.7 269.3 106.3 286.7 116 300C125.7 313.3 135.3 322.7 145 295.5C154.7 268.3 164.3 204.7 174 187C183.7 169.3 193.3 197.7 203 206.2C212.7 214.7 222.3 203.3 232 218.5C241.7 233.7 251.3 275.3 261 286C270.7 296.7 280.3 276.3 290 259.2C299.7 242 309.3 228 319 230.7C328.7 233.3 338.3 252.7 348 235.8C357.7 219 367.3 166 377 140.7C386.7 115.3 396.3 117.7 406 153C415.7 188.3 425.3 256.7 435.2 270.3C445 284 455 243 464.8 216.8C474.7 190.7 484.3 179.3 494 178.2C503.7 177 513.3 186 523 199.5C532.7 213 542.3 231 552 230.5C561.7 230 571.3 211 581 217.8C590.7 224.7 600.3 257.3 610 271.2C619.7 285 629.3 280 639 259.2C648.7 238.3 658.3 201.7 668 197C677.7 192.3 687.3 219.7 697 245.3C706.7 271 716.3 295 726 289.3C735.7 283.7 745.3 248.3 755 242.5C764.7 236.7 774.3 260.3 784 271C793.7 281.7 803.3 279.3 813 283.3C822.7 287.3 832.3 297.7 842 299C851.7 300.3 861.3 292.7 871 276C880.7 259.3 890.3 233.7 895.2 220.8L900 208L900 0L895.2 0C890.3 0 880.7 0 871 0C861.3 0 851.7 0 842 0C832.3 0 822.7 0 813 0C803.3 0 793.7 0 784 0C774.3 0 764.7 0 755 0C745.3 0 735.7 0 726 0C716.3 0 706.7 0 697 0C687.3 0 677.7 0 668 0C658.3 0 648.7 0 639 0C629.3 0 619.7 0 610 0C600.3 0 590.7 0 581 0C571.3 0 561.7 0 552 0C542.3 0 532.7 0 523 0C513.3 0 503.7 0 494 0C484.3 0 474.7 0 464.8 0C455 0 445 0 435.2 0C425.3 0 415.7 0 406 0C396.3 0 386.7 0 377 0C367.3 0 357.7 0 348 0C338.3 0 328.7 0 319 0C309.3 0 299.7 0 290 0C280.3 0 270.7 0 261 0C251.3 0 241.7 0 232 0C222.3 0 212.7 0 203 0C193.3 0 183.7 0 174 0C164.3 0 154.7 0 145 0C135.3 0 125.7 0 116 0C106.3 0 96.7 0 87 0C77.3 0 67.7 0 58 0C48.3 0 38.7 0 29 0C19.3 0 9.7 0 4.8 0L0 0Z" fill="#FF0066" stroke-linecap="round" stroke-linejoin="miter"></path></svg>