<svg id="visual" viewBox="0 0 900 200" width="900" height="200" xmlns="http://www.w3.org/2000/svg" xmlns:xlink="http://www.w3.org/1999/xlink" version="1.1"><rect x="0" y="0" width="900" height="200" fill="#0066FF"></rect><path d="M0 112L53 131L106 114L159 118L212 150L265 147L318 107L371 127L424 126L476 147L529 116L582 123L635 110L688 146L741 106L794 139L847 144L900 132L900 0L847 0L794 0L741 0L688 0L635 0L582 0L529 0L476 0L424 0L371 0L318 0L265 0L212 0L159 0L106 0L53 0L0 0Z" fill="#c62368"></path><path d="M0 110L53 138L106 89L159 110L212 124L265 102L318 117L371 89L424 102L476 98L529 98L582 98L635 94L688 135L741 138L794 120L847 139L900 94L900 0L847 0L794 0L741 0L688 0L635 0L582 0L529 0L476 0L424 0L371 0L318 0L265 0L212 0L159 0L106 0L53 0L0 0Z" fill="#bd1852"></path><path d="M0 116L53 103L106 76L159 84L212 81L265 95L318 84L371 100L424 90L476 105L529 73L582 83L635 104L688 94L741 81L794 88L847 86L900 103L900 0L847 0L794 0L741 0L688 0L635 0L582 0L529 0L476 0L424 0L371 0L318 0L265 0L212 0L159 0L106 0L53 0L0 0Z" fill="#b1113e"></path><path d="M0 53L53 50L106 62L159 55L212 62L265 53L318 58L371 88L424 91L476 76L529 80L582 60L635 69L688 85L741 61L794 80L847 54L900 85L900 0L847 0L794 0L741 0L688 0L635 0L582 0L529 0L476 0L424 0L371 0L318 0L265 0L212 0L159 0L106 0L53 0L0 0Z" fill="#a40e2a"></path><path d="M0 33L53 48L106 42L159 34L212 42L265 66L318 60L371 62L424 46L476 43L529 47L582 44L635 33L688 57L741 38L794 44L847 57L900 55L900 0L847 0L794 0L741 0L688 0L635 0L582 0L529 0L476 0L424 0L371 0L318 0L265 0L212 0L159 0L106 0L53 0L0 0Z" fill="#961017"></path><path d="M0 30L53 18L106 31L159 34L212 31L265 38L318 21L371 19L424 38L476 16L529 22L582 32L635 26L688 14L741 32L794 27L847 39L900 41L900 0L847 0L794 0L741 0L688 0L635 0L582 0L529 0L476 0L424 0L371 0L318 0L265 0L212 0L159 0L106 0L53 0L0 0Z" fill="#871400"></path></svg>